<?xml version="1.0" encoding="utf-8"?>
<!-- Generator: Adobe Illustrator 25.2.1, SVG Export Plug-In . SVG Version: 6.00 Build 0)  -->
<svg version="1.1" id="Layer_1" xmlns="http://www.w3.org/2000/svg" xmlns:xlink="http://www.w3.org/1999/xlink" x="0px" y="0px"
	 viewBox="0 0 288 288" style="enable-background:new 0 0 288 288;" xml:space="preserve">
<style type="text/css">
	.st0{fill:#C99B8F;}
</style>
<g>
	<path class="st0" d="M268.8,192V30.4H52.2v61.1C69.2,97.7,81.3,114,81.3,133c0,11.1-4.1,21.2-10.8,29h52.5l47.3-23.3l7.2,14.7
		L133,175.3v12.4c0,7.4-2.2,14.6-6.3,20.7H284V192L268.8,192z M205.6,62.5v16.4h-90.1V62.5L205.6,62.5z M101.3,113.7V97.3h118.4
		v16.4H101.3z"/>
	<circle class="st0" cx="37" cy="133" r="27.9"/>
	<path class="st0" d="M116.6,187.7v-9.3H37c-18.2,0-33,14.8-33,33v46.2h66c0,0,0-49.1,0-49.3h26
		C107.4,208.4,116.6,199.1,116.6,187.7z"/>
</g>
</svg>
