<?xml version="1.0" encoding="utf-8"?>
<!-- Generator: Adobe Illustrator 25.2.1, SVG Export Plug-In . SVG Version: 6.00 Build 0)  -->
<svg version="1.1" id="Layer_1" xmlns="http://www.w3.org/2000/svg" xmlns:xlink="http://www.w3.org/1999/xlink" x="0px" y="0px"
	 viewBox="0 0 288 288" style="enable-background:new 0 0 288 288;" xml:space="preserve">
<style type="text/css">
	.st0{fill:#C99B8F;}
</style>
<g>
	<path class="st0" d="M135.2,177.4c-13.6,0-24.6,11-24.6,24.6s11,24.6,24.6,24.6s24.6-11,24.6-24.6S148.8,177.4,135.2,177.4z
		 M77.8,4C64.3,4,53.2,15.6,53.2,29.2s11,25.2,24.6,25.2s24.6-11.6,24.6-25.2S91.4,4,77.8,4z M53.2,177.4c-13.6,0-24.6,11-24.6,24.6
		s11,24.6,24.6,24.6s24.6-11,24.6-24.6S66.8,177.4,53.2,177.4z M217.3,177.4c-13.6,0-24.6,11-24.6,24.6s11,24.6,24.6,24.6
		s24.6-11,24.6-24.6S230.9,177.4,217.3,177.4z"/>
	<path class="st0" d="M179.7,91.9c-6.4-6.4-16.9-6.4-23.3,0l-18.7,18.7l-21.7-32.5c-3-4.6-7.9-7.2-13.6-7.2l-0.8-0.2H36.8
		C18.8,70.7,4,85.5,4,103.5v69.7c0,6.6,5.2,11.9,11.7,12.2c2.8-6.4,7.3-11.9,12.9-16.1v-57.6c0-4.6,3.6-8.2,8.2-8.2s8.2,3.6,8.2,8.2
		v50c2.7-0.6,5.4-0.8,8.2-0.8c22.6,0,41,18.4,41,41c0-9.2,3.1-17.5,8.2-24.4v-61l19.2,28.7c5.3,8.6,17.6,9.9,25.3,2.6l32.8-32.8
		C186.1,108.8,186.1,98.3,179.7,91.9L179.7,91.9z M167.8,226.6c-7.5,9.9-19.2,16.4-32.6,16.4s-25.1-6.5-32.6-16.4
		c-10,7.5-16.6,19.3-16.6,32.8v16.4c0,4.5,3.7,8.2,8.2,8.2h82c4.5,0,8.2-3.7,8.2-8.2v-16.4C184.5,245.9,177.9,234.1,167.8,226.6
		L167.8,226.6z M250.4,226.6c-7.5,9.9-19.8,16.4-33.1,16.4c-7.9,0-15.1-2.3-21.4-6.2c3.1,7,5,14.6,5,22.6v16.4
		c0,2.9-0.6,5.6-1.5,8.2h59.5c4.5,0,8.2-3.7,8.2-8.2v-16.4C267,245.9,260.4,234.1,250.4,226.6L250.4,226.6z M69.6,259.4
		c0-8,1.9-15.6,5-22.6c-6.2,3.8-13.5,6.2-21.4,6.2c-13.3,0-25.1-6.5-32.6-16.4C10.6,234.1,4,245.9,4,259.4v16.4
		c0,4.5,3.7,8.2,8.2,8.2h58.9c-0.9-2.6-1.5-5.3-1.5-8.2V259.4z"/>
	<path class="st0" d="M258.8,21H143.5c-13.6,0-24.6,11.6-24.6,25.2v12.7c4.5,2.5,8.2,6.1,11,10.4l10.4,15.6l4.6-4.5
		c12.8-12.8,33.7-12.8,46.5,0c12.8,12.8,12.8,33.7,0,46.5l-26,26h93.5c13.6,0,25.2-11,25.2-24.6v-82C284,32.5,272.4,21,258.8,21z"/>
</g>
</svg>
