<?xml version="1.0" encoding="utf-8"?>
<!-- Generator: Adobe Illustrator 25.2.1, SVG Export Plug-In . SVG Version: 6.00 Build 0)  -->
<svg version="1.1" id="Layer_1" xmlns="http://www.w3.org/2000/svg" xmlns:xlink="http://www.w3.org/1999/xlink" x="0px" y="0px"
	 viewBox="0 0 288 288" style="enable-background:new 0 0 288 288;" xml:space="preserve">
<style type="text/css">
	.st0{fill:#C99B8F;}
</style>
<g>
	<path class="st0" d="M119.8,94.4l-32.6,8.4L54.1,85c-0.5-0.3-1-0.5-1.5-0.6c-0.8-0.4-1.6-0.7-2.5-0.9c-9.1-2.2-22.2,2.8-27.5,18.4
		c-5.1,15.3-7.3,26.8-7.1,40.7c0.1,5.6,0.5,11.6,1.3,18.4c1.7,8.4,5.3,13.1,9.8,15.6c0.9,0.8,1.9,1.6,3.1,2.1l40.6,19.9l11,47.7
		c1.4,6.2,6.9,10.3,12.9,10.3c1,0,2-0.1,3-0.3c7.2-1.6,11.6-8.8,10-15.9l-12.4-53.9c-0.9-3.9-3.5-7.2-7.1-9l-33.1-16.2
		c-0.6-6.1-0.5-12.5,0.1-18.8c0.1-1.3,0.3-2.6,0.4-3.9l-17.2-23.8c-1.7-2.4-2.4-5.3-2-8.2s2-5.4,4.4-7.1c1.9-1.4,4.1-2.1,6.4-2.1
		c3.5,0,6.8,1.7,8.9,4.5l4.8,6.6c0.1-0.2,0.1-0.5,0.2-0.7L82,119.4c1.9,1,4.1,1.3,6.2,0.8l35.8-9.2c4.6-1.2,7.3-5.8,6.1-10.4
		C129,96,124.3,93.2,119.8,94.4z"/>
	<circle class="st0" cx="66.7" cy="57.1" r="23.9"/>
	<path class="st0" d="M64.7,150.1l-8.1,1.1c0,2.8,0,5.6,0.3,8.4l31.9,15.6c0.8,0.4,1.5,0.8,2.1,1.3l3.9-10.9
		c1.6-4.4,0.7-9.2-2.2-12.9c-0.2-0.3-0.5-0.6-0.8-0.8l-21.9-0.4C68.1,151.5,66.3,151,64.7,150.1L64.7,150.1z M50.2,191.4l2.2,13.8
		l-4.2,11.6c-1.7,4.7-0.6,9.7,2.5,13.2H14.4l7-44.1h17.7l-10.5-5.2c-0.9-0.4-1.7-0.9-2.5-1.5h-13c-1.8,0-3.2,1.4-3.2,3.2v0.3
		c0,1.8,1.4,3.2,3.2,3.2h2.2L4,257.1l6,0.9l3.4-21.4h44l3.4,21.4l6-0.9l-3.6-22.8c4.5-0.8,8.5-4,10.1-8.6l0.5-1.4l-5.6-24.2
		L50.2,191.4z M53.6,103.3c-2.7-3.8-8-4.7-11.9-2s-4.7,8-2,11.9c0,0,0.1,0.1,0.1,0.1l23.4,32.3c1.6,2.2,4.1,3.5,6.7,3.5l46.5,0.9
		l0.2,0c4.7,0,8.5-3.8,8.5-8.5c0-4.6-3.7-8.4-8.3-8.5l-42.2-0.8L53.6,103.3z M209.8,239.8c-7.7,0-14.4-5.8-15.6-13.4l-1.8-12.2
		l-4.9,29.3c-1.2,7.2,3.7,14.1,10.9,15.3c0.7,0.1,1.5,0.2,2.2,0.2c6.4,0,12-4.6,13.1-11.1l1.5-9.1
		C213.4,239.5,211.6,239.8,209.8,239.8L209.8,239.8z M274.9,186.4c1.8,0,3.2-1.4,3.2-3.2v-0.3c0-1.8-1.4-3.2-3.2-3.2h-34.8l2-1.6
		h-23.2l3.1,20.7l0.8-4.9l9.2-7.5h0.6l-11.3,71.2l6,0.9l3.4-21.4h44l3.4,21.4l6-0.9l-11.3-71.2L274.9,186.4L274.9,186.4z
		 M273.6,230.5h-41.9l7-44.1h27.9L273.6,230.5z"/>
	<circle class="st0" cx="220.4" cy="52.9" r="23.9"/>
	<path class="st0" d="M252.3,175.7c4.2,0,8-2,10.4-5c3.2-2.8,5.8-7.1,7.2-13.8c2.9-23.6,1.4-37.6-5.8-59.1
		c-5.3-15.6-18.4-20.6-27.5-18.4c-9.1,2.2-13.1,14.9-10.1,25.5c0.8,4,1.7,8.5,2.6,13.2l3.1-18.7c0.9-5.3,5.4-9.2,10.8-9.1
		c0.6,0,1.2,0.1,1.8,0.2c2.9,0.5,5.4,2.1,7.1,4.4s2.4,5.3,1.9,8.2l-6.9,41.2c-0.9,5.7-6.2,9.7-12,9.1c-3-0.3-6.4-0.5-9.8-0.5
		c-13.9,0-24.9,2.5-29.2,6.8c-2,2-4.8,3.1-7.6,3.1c-0.3,0-0.5,0-0.8,0c0,0.6,0,1.1,0.1,1.7l9.2,61.7c1,6.6,6.7,11.4,13.1,11.4
		c0.6,0,1.3,0,2-0.1c7.3-1.1,12.3-7.8,11.2-15.1l-6.9-46.5L252.3,175.7L252.3,175.7z"/>
	<path class="st0" d="M188.1,160.2c2.2,0,4.3-0.9,5.9-2.4c7.7-7.5,29.2-8.2,41-6.9c4.5,0.5,8.6-2.6,9.3-7.1l6.9-41.2
		c0.8-4.6-2.4-9-7-9.8c-4.6-0.8-9,2.3-9.8,7c0,0,0,0,0,0l-5.6,33.6c-12.2-0.4-34.8,0.6-46.7,12.2c-3.4,3.3-3.4,8.7-0.2,12
		C183.6,159.3,185.8,160.2,188.1,160.2z"/>
</g>
</svg>
