<?xml version="1.0" encoding="utf-8"?>
<!-- Generator: Adobe Illustrator 25.2.1, SVG Export Plug-In . SVG Version: 6.00 Build 0)  -->
<svg version="1.1" id="Layer_1" xmlns="http://www.w3.org/2000/svg" xmlns:xlink="http://www.w3.org/1999/xlink" x="0px" y="0px"
	 viewBox="0 0 288 288" style="enable-background:new 0 0 288 288;" xml:space="preserve">
<style type="text/css">
	.st0{fill:#C99B8F;}
</style>
<g>
	<path class="st0" d="M214.1,259.5c1.2,2-0.4,4.3-2.5,4.3H76.4c-2,0-3.7-2.2-2.5-4.3l12.3-21.1h115.6L214.1,259.5z M4,214.8
		c0,8,6.6,14.6,14.6,14.6h250.8c8,0,14.6-6.6,14.6-14.6v-0.4H4V214.8z M139.5,205.3H4v-86h99.2c2.1,19.1,17.2,34.2,36.3,36.3
		L139.5,205.3L139.5,205.3z M60.7,147.7c0,7.4,6,13.3,13.3,13.3s13.3-6,13.3-13.3c0-7.4-6-13.3-13.3-13.3S60.7,140.3,60.7,147.7z
		 M98.6,189.5c-1-12.7-11.6-22.8-24.6-22.8s-23.6,10.1-24.6,22.8c-0.1,0.9,0.6,1.8,1.6,1.8c0,0,0.1,0,0.1,0h45.7
		c0.9,0,1.7-0.8,1.7-1.7C98.6,189.6,98.6,189.5,98.6,189.5L98.6,189.5z M284,38.8v71.4h-99.2c-2.1-19.1-17.2-34.2-36.3-36.3V24.2
		h120.8C277.4,24.2,284,30.7,284,38.8z M200.7,52.1c0,7.4,6,13.3,13.3,13.3s13.3-6,13.3-13.3s-6-13.3-13.3-13.3
		C206.6,38.7,200.7,44.7,200.7,52.1z M238.6,93.8c-1-12.7-11.6-22.8-24.6-22.8c-12.9,0-23.6,10.1-24.6,22.8
		c-0.1,0.9,0.6,1.8,1.6,1.8c0,0,0.1,0,0.1,0h45.7c0.9,0,1.7-0.8,1.7-1.7C238.6,93.9,238.6,93.9,238.6,93.8L238.6,93.8z M184.8,119.3
		H284v86H148.5v-49.7C167.6,153.5,182.7,138.3,184.8,119.3L184.8,119.3z M200.7,147.7c0,7.4,6,13.3,13.3,13.3s13.3-6,13.3-13.3
		c0-7.4-6-13.3-13.3-13.3S200.7,140.3,200.7,147.7z M189.4,189.5c-0.1,0.9,0.6,1.8,1.6,1.8c0,0,0.1,0,0.1,0h45.7
		c0.9,0,1.7-0.8,1.7-1.7c0,0,0-0.1,0-0.1c-1-12.7-11.6-22.8-24.6-22.8C201.1,166.7,190.4,176.8,189.4,189.5L189.4,189.5z
		 M158.2,102.6v6.3l12.8-5.3v22.1l-12.8-5.3v6.3c0,1.1-0.9,1.9-1.9,1.9h-34c-1.1,0-1.9-0.9-1.9-1.9v-24.2c0-1.1,0.9-1.9,1.9-1.9h34
		C157.3,100.7,158.2,101.6,158.2,102.6z M147.1,114.7c0-2.5-2-4.5-4.5-4.5h-6.7c-2.5,0-4.5,2-4.5,4.5c0,2.5,2,4.5,4.5,4.5h6.7
		C145.1,119.3,147.1,117.2,147.1,114.7z M103.2,110.2H4V38.8c0-8,6.6-14.6,14.6-14.6h120.8v49.7C120.4,76,105.3,91.1,103.2,110.2
		L103.2,110.2z M60.7,52.1c0,7.4,6,13.3,13.3,13.3s13.3-6,13.3-13.3s-6-13.3-13.3-13.3C66.6,38.7,60.7,44.7,60.7,52.1z M98.6,93.8
		c-1-12.7-11.6-22.8-24.6-22.8S50.4,81.1,49.4,93.8c-0.1,0.9,0.6,1.8,1.6,1.8c0,0,0.1,0,0.1,0h45.7c0.9,0,1.7-0.8,1.7-1.7
		C98.6,93.9,98.6,93.9,98.6,93.8L98.6,93.8z"/>
</g>
</svg>
