<?xml version="1.0" encoding="utf-8"?>
<!-- Generator: Adobe Illustrator 25.2.1, SVG Export Plug-In . SVG Version: 6.00 Build 0)  -->
<svg version="1.1" id="Layer_1" xmlns="http://www.w3.org/2000/svg" xmlns:xlink="http://www.w3.org/1999/xlink" x="0px" y="0px"
	 viewBox="0 0 1000 1000" style="enable-background:new 0 0 1000 1000;" xml:space="preserve">
<style type="text/css">
	.st0{fill:#FFFFFF;}
</style>
<g>
	<path class="st0" d="M932.5,254c-56.3,0-108.3-18.7-150-50.1c-47.9-36.1-82.3-89-94.4-150c-3-15.3-4.6-30.9-4.8-46.6H522.3v439.7
		l-0.2,240.8c0,64.4-41.9,119-100.1,138.2c-17.4,5.8-35.7,8.2-54.1,7.2c-24.2-1.3-46.9-8.6-66.6-20.4c-42-25.1-70.4-70.6-71.2-122.7
		c-1.2-81.4,64.6-147.8,146-147.8c16.1,0,31.5,2.6,45.9,7.4V386.2c-15.2-2.3-30.7-3.4-46.4-3.4c-89,0-172.3,37-231.9,103.7
		c-45,50.4-72,114.7-76.2,182.1c-5.5,88.6,27,172.8,89.8,234.9c9.2,9.1,18.9,17.6,29.1,25.4c53.9,41.5,119.8,63.9,189.1,63.9
		c15.7,0,31.2-1.2,46.4-3.4c64.8-9.6,124.6-39.3,171.8-85.9c58-57.3,90-133.4,90.4-214.4l-0.8-359.7c27.7,21.4,58.1,39.1,90.4,52.7
		c50.5,21.3,104,32.1,159.1,32.1V254C933,254,932.5,254,932.5,254L932.5,254z"/>
</g>
</svg>
