<?xml version="1.0" encoding="utf-8"?>
<!-- Generator: Adobe Illustrator 25.2.1, SVG Export Plug-In . SVG Version: 6.00 Build 0)  -->
<svg version="1.1" id="Layer_1" xmlns="http://www.w3.org/2000/svg" xmlns:xlink="http://www.w3.org/1999/xlink" x="0px" y="0px"
	 viewBox="0 0 1000 1000" style="enable-background:new 0 0 1000 1000;" xml:space="preserve">
<style type="text/css">
	.st0{fill:#FFFFFF;}
</style>
<g>
	<path class="st0" d="M979.1,265.1c-5.2-43.2-45.9-84.6-88.4-90.1c-259.5-32.2-521.9-32.2-781.4,0C66.7,180.6,26,222,20.9,265.1
		c-18.3,158.2-18.3,311.6,0,469.7C26,778,66.7,819.5,109.3,825c259.5,32.2,521.9,32.2,781.4,0c42.6-5.5,83.2-46.9,88.4-90.1
		C997.5,576.7,997.5,423.3,979.1,265.1z M417.8,664.3V335.7L664.3,500L417.8,664.3L417.8,664.3z"/>
</g>
</svg>
